# xmcd CD database file generated by freedbAccess_ocx
#
# Track frame offsets:
#       150
#       11951
#       23622
#       36947
#       50800
#       61770
#       75165
#       90549
#       103911
#       115011
#       129742
#       141694
#       156046
#       169007
#       182183
#       197863
#       213383
#       224077
#       238045
#       252844
#
# Disc length: 3564 seconds
#
# Revision: 0
# Processed by: cddbd v1.5.2PL0 Copyright (c) Steve Scherf et al.
# Submitted via: CDnGo 2.00
#
DISCID=240dea14
DTITLE=Django Reinhart - Memorial [CD1)
DYEAR=1937
DGENRE=Jazz
TTITLE0=Dinah
TTITLE1=Tiger Rag
TTITLE2=Confessin'
TTITLE3=Swanee River
TTITLE4=Some of these days
TTITLE5=Djangology
TTITLE6=I can't give you anything but love
TTITLE7=Shine
TTITLE8=Swing guitars
TTITLE9=Georgia on my mind
TTITLE10=Tears
TTITLE11=Solitude
TTITLE12=Charleston
TTITLE13=Ain't Misbehavin'
TTITLE14=Body and Soul
TTITLE15=Chicago
TTITLE16=Mystery Pacific
TTITLE17=The Sheik of Araby
TTITLE18=Minor Swing
TTITLE19=Viper's dream
EXTD=
EXTT0=
EXTT1=
EXTT2=
EXTT3=
EXTT4=
EXTT5=
EXTT6=
EXTT7=
EXTT8=
EXTT9=
EXTT10=
EXTT11=
EXTT12=
EXTT13=
EXTT14=
EXTT15=
EXTT16=
EXTT17=
EXTT18=
EXTT19=
PLAYORDER=
